<svg xmlns="http://www.w3.org/2000/svg" width="10.98" height="19.412" viewBox="0 0 10.98 19.412">
  <path id="chevron_right_FILL0_wght400_GRAD0_opsz48" d="M17.636,31.523a1.571,1.571,0,0,1-.361-.934,1.15,1.15,0,0,1,.361-.892l7.475-7.475L17.593,14.7a1.169,1.169,0,0,1-.319-.913,1.306,1.306,0,0,1,.361-.913,1.2,1.2,0,0,1,.913-.4,1.283,1.283,0,0,1,.871.4l8.452,8.452a1.294,1.294,0,0,1,.3.425,1.327,1.327,0,0,1,0,.934,1.294,1.294,0,0,1-.3.425l-8.409,8.409a1.15,1.15,0,0,1-.892.361A1.571,1.571,0,0,1,17.636,31.523Z" transform="translate(-17.273 -12.474)" fill="#9f1d21"/>
</svg>
